<?xml version="1.0" encoding="utf-8"?>
<!-- Generator: Adobe Illustrator 16.0.0, SVG Export Plug-In . SVG Version: 6.00 Build 0)  -->
<!DOCTYPE svg PUBLIC "-//W3C//DTD SVG 1.1//EN" "http://www.w3.org/Graphics/SVG/1.1/DTD/svg11.dtd">
<svg version="1.1" id="Layer_1" xmlns="http://www.w3.org/2000/svg" xmlns:xlink="http://www.w3.org/1999/xlink" x="0px" y="0px"
	 width="40px" height="40px" viewBox="0 0 40 40" enable-background="new 0 0 40 40" xml:space="preserve">
<path fill="#FFFFFF" d="M5.94,22.286h2.37v9.479c0,0.559,0.457,1.016,1.016,1.016h6.94c0.558,0,1.016-0.457,1.016-1.016v-6.94h4.232
	v6.94c0,0.559,0.456,1.016,1.015,1.016h6.603c0.559,0,1.016-0.457,1.016-1.016v-9.479h2.877c0.406,0,0.779-0.254,0.932-0.626
	c0.152-0.373,0.066-0.813-0.221-1.1L20.498,7.137c-0.39-0.39-1.033-0.406-1.422-0.018L5.246,20.543
	c-0.305,0.287-0.39,0.728-0.237,1.117C5.161,22.049,5.533,22.286,5.94,22.286L5.94,22.286z M19.752,9.286l10.833,10.969h-1.455
	c-0.559,0-1.016,0.457-1.016,1.016v9.479h-4.57v-6.939c0-0.56-0.457-1.017-1.017-1.017h-6.263c-0.559,0-1.016,0.457-1.016,1.017
	v6.939h-4.909v-9.479c0-0.559-0.457-1.016-1.016-1.016h-0.88L19.752,9.286z M19.752,9.286"/>
</svg>
