<?xml version="1.0" encoding="utf-8"?>
<!-- Generator: Adobe Illustrator 16.0.0, SVG Export Plug-In . SVG Version: 6.00 Build 0)  -->
<!DOCTYPE svg PUBLIC "-//W3C//DTD SVG 1.1//EN" "http://www.w3.org/Graphics/SVG/1.1/DTD/svg11.dtd">
<svg version="1.1" id="Layer_1" xmlns="http://www.w3.org/2000/svg" xmlns:xlink="http://www.w3.org/1999/xlink" x="0px" y="0px"
	 width="40px" height="40px" viewBox="0 0 40 40" enable-background="new 0 0 40 40" xml:space="preserve">
<path fill="#FFFFFF" d="M24.691,12.321h-9.458l0.793-1.937c0.168-0.413,0.045-0.886-0.303-1.165s-0.839-0.295-1.206-0.04
	l-6.402,4.448c-0.28,0.194-0.442,0.518-0.433,0.859c0.01,0.34,0.193,0.654,0.484,0.83l6.695,4.066
	c0.381,0.23,0.868,0.185,1.198-0.113c0.331-0.299,0.427-0.784,0.235-1.187l-0.879-1.861h9.274c0.684,0,1.24,0.567,1.24,1.251v6.783
	c0,0.684-0.557,1.23-1.24,1.23H14.428c-0.915,0-1.657,0.742-1.657,1.658v0.584c0,0.916,0.742,1.658,1.657,1.658h10.263
	c2.834,0,5.141-2.295,5.141-5.131v-6.783C29.832,14.639,27.525,12.321,24.691,12.321L24.691,12.321z M24.691,12.321"/>
</svg>
