<?xml version="1.0" encoding="utf-8"?>
<!-- Generator: Adobe Illustrator 16.0.0, SVG Export Plug-In . SVG Version: 6.00 Build 0)  -->
<!DOCTYPE svg PUBLIC "-//W3C//DTD SVG 1.1//EN" "http://www.w3.org/Graphics/SVG/1.1/DTD/svg11.dtd">
<svg version="1.1" id="Layer_1" xmlns="http://www.w3.org/2000/svg" xmlns:xlink="http://www.w3.org/1999/xlink" x="0px" y="0px"
	 width="40px" height="40px" viewBox="0 0 40 40" enable-background="new 0 0 40 40" xml:space="preserve">
<g>
	<g>
		<path fill="#FFFFFF" d="M33.866,30.39l-6.704-6.926c-0.479-0.496-1.081-0.695-1.342-0.442c-0.26,0.252-0.861,0.054-1.343-0.443
			l-0.096-0.099c3.001-3.946,2.71-9.596-0.893-13.198c-3.933-3.931-10.31-3.931-14.24,0c-3.931,3.933-3.931,10.306,0,14.237
			c3.664,3.666,9.447,3.911,13.402,0.746l0.042,0.044c0.479,0.496,0.657,1.104,0.396,1.356c-0.261,0.254-0.083,0.859,0.397,1.355
			l6.701,6.928c0.479,0.496,1.271,0.51,1.769,0.028l1.88-1.818C34.332,31.678,34.345,30.886,33.866,30.39L33.866,30.39z
			 M21.275,21.308c-2.706,2.705-7.109,2.705-9.814,0c-2.706-2.707-2.706-7.109,0-9.815c2.706-2.706,7.109-2.706,9.814,0
			C23.981,14.198,23.981,18.601,21.275,21.308L21.275,21.308z M21.275,21.308"/>
	</g>
</g>
</svg>
